PathFileType	4	(X/Y/Z)	/Users/itak/Documents/Research/Walk-IL/dataset/trc/00478_00167.trc
DataRate	CameraRate	NumFrames	NumMarkers	Units	OrigDataRate	OrigDataStartFrame	OrigNumFrames
100.000000	100.000000	4	53	mm	100.000000	0	543
Frame#	Time	RPSI			LPSI			L3			STRN			T10			C7			CLAV			RBAK			LBAK			LSHO			LUPA			LAEL			LAOL			LWTS			LWPS			LFRA			LIFD			LHPS			LHTS			RSHO			RUPA			RAEL			RAOL			RWTS			RWPS			RFRA			RIFD			RHTS			RHPS			RBHD			LFHD			RFHD			LBHD			LHIP			RHIP			RASI			LASI			LKNE			LTHI			LANK			LTIP			LTOE			LMT1			LMT5			LHEE			RKNE			RTHI			RANK			RTIP			RTOE			RMT1			RMT5			RHEE			
		X1	Y1	Z1	X2	Y2	Z2	X3	Y3	Z3	X4	Y4	Z4	X5	Y5	Z5	X6	Y6	Z6	X7	Y7	Z7	X8	Y8	Z8	X9	Y9	Z9	X10	Y10	Z10	X11	Y11	Z11	X12	Y12	Z12	X13	Y13	Z13	X14	Y14	Z14	X15	Y15	Z15	X16	Y16	Z16	X17	Y17	Z17	X18	Y18	Z18	X19	Y19	Z19	X20	Y20	Z20	X21	Y21	Z21	X22	Y22	Z22	X23	Y23	Z23	X24	Y24	Z24	X25	Y25	Z25	X26	Y26	Z26	X27	Y27	Z27	X28	Y28	Z28	X29	Y29	Z29	X30	Y30	Z30	X31	Y31	Z31	X32	Y32	Z32	X33	Y33	Z33	X34	Y34	Z34	X35	Y35	Z35	X36	Y36	Z36	X37	Y37	Z37	X38	Y38	Z38	X39	Y39	Z39	X40	Y40	Z40	X41	Y41	Z41	X42	Y42	Z42	X43	Y43	Z43	X44	Y44	Z44	X45	Y45	Z45	X46	Y46	Z46	X47	Y47	Z47	X48	Y48	Z48	X49	Y49	Z49	X50	Y50	Z50	X51	Y51	Z51	X52	Y52	Z52	X53	Y53	Z53	

1	0	-1228.295776367188	960.578125	9.308087348937988	-1216.986206054688	957.5914306640625	-130.1699066162109	-1212.96337890625	1048.9755859375	-47.31869506835938	-951.2857055664062	1256.424926757812	-41.35977935791016	-1235.89794921875	1171.635986328125	-54.53425216674805	-1180.791381835938	1442.247314453125	-38.57224273681641	-990.8572998046875	1368.377319335938	-44.78584671020508	-1242.047973632812	1318.526611328125	52.46558380126953	-1207.950439453125	1395.128051757812	-139.4774932861328	-1102.092163085938	1421.800537109375	-214.432373046875	-1105.29052734375	1303.761108398438	-314.0709533691406	-1075.241943359375	1090.04931640625	-349.098388671875	-1152.522583007812	1071.780639648438	-283.0440063476562	-985.7901611328125	892.8927612304688	-313.2405700683594	-1031.856323242188	873.6635131835938	-366.7643737792969	-1050.106201171875	1004.235046386719	-361.0333862304688	-964.660400390625	736.2598876953125	-317.7399597167969	-1020.682983398438	796.1182861328125	-365.5942993164062	-965.1364135742188	808.8821411132812	-320.4186401367188	-1119.79638671875	1415.30712890625	123.576416015625	-1139.438354492188	1354.894287109375	199.21435546875	-1130.775268554688	1067.196044921875	255.1360626220703	-1175.926635742188	1046.610473632812	209.2370300292969	-1009.873840332031	864.225341796875	226.6419830322266	-1084.091918945312	854.747802734375	275.2316284179688	-1123.701416015625	1009.581237792969	265.714599609375	-1023.98388671875	704.9218139648438	241.4053344726562	-1006.355285644531	763.1689453125	239.1268920898438	-1075.694091796875	773.935302734375	277.6402282714844	-1122.208618164062	1643.946044921875	43.96399307250977	-979.2214965820312	1672.31494140625	-103.007080078125	-989.2237548828125	1677.864135742188	27.15827751159668	-1125.442993164062	1638.033325195312	-133.2790832519531	-1074.52978515625	863.2559204101562	-241.9188995361328	-1124.026123046875	862.439208984375	156.4624633789062	-1012.678833007812	901.46923828125	105.1664199829102	-980.7705688476562	898.2792358398438	-154.0690612792969	-1093.651977539062	447.8205871582031	-223.8739318847656	-1056.494018554688	597.5484008789062	-236.0276031494141	-1176.849487304688	41.79206466674805	-242.7310028076172	-1107.090698242188	302.7238464355469	-245.4774475097656	-950.386474609375	44.8056526184082	-152.2629089355469	-1029.307739257812	52.17324447631836	-131.5024108886719	-1021.787719726562	46.32412719726562	-245.1829681396484	-1227.39697265625	45.2110595703125	-182.7882995605469	-1115.484619140625	472.9702453613281	150.2558441162109	-1083.168212890625	730.6054077148438	177.6970977783203	-1183.077392578125	43.07490158081055	176.6139984130859	-1120.325439453125	329.7669067382812	167.7829437255859	-973.1231689453125	48.18259811401367	111.8834533691406	-1036.907836914062	53.6577033996582	82.09021759033203	-1047.064819335938	46.39536666870117	190.9750518798828	-1251.40185546875	35.21785736083984	135.8573455810547	
2	0.01	-1228.251586914062	960.5498046875	9.270223617553711	-1216.984008789062	957.6126098632812	-130.1941070556641	-1212.91015625	1049.006469726562	-47.34146118164062	-951.0780029296875	1256.447021484375	-41.46452713012695	-1235.810424804688	1171.692749023438	-54.55037689208984	-1180.628295898438	1442.273193359375	-38.70707321166992	-990.7930297851562	1368.449951171875	-44.94482421875	-1241.903076171875	1318.587036132812	52.47742462158203	-1207.836303710938	1395.1572265625	-139.509033203125	-1101.975219726562	1421.7783203125	-214.5439910888672	-1105.172729492188	1303.707397460938	-314.1371459960938	-1075.075927734375	1090.0244140625	-349.18505859375	-1152.321533203125	1071.717163085938	-283.1553039550781	-985.4574584960938	892.9566040039062	-313.1878662109375	-1031.619384765625	873.6349487304688	-366.7744140625	-1049.901123046875	1004.157775878906	-361.0383605957031	-963.9684448242188	736.3257446289062	-317.529296875	-1020.297241210938	796.0877685546875	-365.5309448242188	-964.7564086914062	808.9738159179688	-320.2948608398438	-1119.570556640625	1415.427490234375	123.4331741333008	-1139.161499023438	1355.04833984375	199.1307830810547	-1130.279663085938	1067.345703125	255.1919860839844	-1175.43994140625	1046.645141601562	209.3661956787109	-1008.901123046875	864.6798095703125	226.4770812988281	-1083.06103515625	854.9869995117188	275.2471923828125	-1123.026489257812	1009.698303222656	265.6995544433594	-1022.580749511719	705.3045043945312	241.3211364746094	-1004.992431640625	763.5952758789062	238.9388885498047	-1074.427978515625	774.1727294921875	277.7145690917969	-1121.774169921875	1643.927612304688	43.96448135375977	-979.2553100585938	1672.317626953125	-103.3883514404297	-988.9147338867188	1677.930419921875	26.76835441589355	-1125.526000976562	1638.001831054688	-133.3202667236328	-1074.55517578125	863.2859497070312	-241.9771423339844	-1123.954223632812	862.3596801757812	156.4304351806641	-1012.714477539062	901.43994140625	105.0539855957031	-980.7368774414062	898.3120727539062	-154.1136779785156	-1093.549926757812	447.8261108398438	-223.9156799316406	-1056.40478515625	597.5518798828125	-236.0850219726562	-1176.846069335938	41.77656555175781	-242.7396240234375	-1106.990844726562	302.7037353515625	-245.4801940917969	-950.380615234375	44.82397842407227	-152.2473602294922	-1029.321533203125	52.17233657836914	-131.4950714111328	-1021.799255371094	46.34270858764648	-245.1823883056641	-1227.404541015625	45.20148468017578	-182.79345703125	-1115.235229492188	472.9105834960938	150.2360687255859	-1083.064331054688	730.55224609375	177.6484985351562	-1183.089111328125	43.05836868286133	176.6433258056641	-1120.169189453125	329.7099609375	167.8140106201172	-973.1441040039062	48.19069290161133	111.8767395019531	-1036.91943359375	53.65070343017578	82.08097076416016	-1047.064208984375	46.39765930175781	190.9624481201172	-1251.40087890625	35.18525695800781	135.8726501464844	
3	0.02	-1228.201293945312	960.5150146484375	9.229273796081543	-1216.9765625	957.6414184570312	-130.2251586914062	-1212.8369140625	1049.048706054688	-47.37982177734375	-950.7977905273438	1256.47998046875	-41.60113906860352	-1235.704956054688	1171.763427734375	-54.56332778930664	-1180.425170898438	1442.305541992188	-38.86777114868164	-990.6836547851562	1368.525146484375	-45.15171432495117	-1241.709594726562	1318.666748046875	52.47447204589844	-1207.689575195312	1395.185791015625	-139.5591430664062	-1101.828002929688	1421.754150390625	-214.6884765625	-1105.017822265625	1303.646118164062	-314.2262573242188	-1074.88720703125	1089.98876953125	-349.2890625	-1152.083740234375	1071.6416015625	-283.2791748046875	-985.0665893554688	893.0245971679688	-313.1200256347656	-1031.336059570312	873.5886840820312	-366.7873229980469	-1049.65234375	1004.061584472656	-361.045654296875	-963.1898803710938	736.4022827148438	-317.3076477050781	-1019.821533203125	796.0503540039062	-365.4419860839844	-964.3087158203125	809.080810546875	-320.1417236328125	-1119.296875	1415.571533203125	123.2638778686523	-1138.813354492188	1355.236938476562	199.0279388427734	-1129.654174804688	1067.53564453125	255.26416015625	-1174.821411132812	1046.6962890625	209.5095062255859	-1007.70947265625	865.2373657226562	226.29345703125	-1081.783935546875	855.2896728515625	275.2760314941406	-1122.181884765625	1009.856872558594	265.6903991699219	-1020.828796386719	705.7904052734375	241.2349243164062	-1003.347717285156	764.1365966796875	238.7583770751953	-1072.84765625	774.472900390625	277.8030395507812	-1121.245239257812	1643.90869140625	43.95076370239258	-979.27197265625	1672.311645507812	-103.8668060302734	-988.5181884765625	1677.983520507812	26.26966285705566	-1125.618408203125	1637.97509765625	-133.3842620849609	-1074.575927734375	863.3207397460938	-242.0440826416016	-1123.861694335938	862.265380859375	156.3837585449219	-1012.72412109375	901.4097290039062	104.9153060913086	-980.697509765625	898.3548583984375	-154.1738586425781	-1093.43505859375	447.8286437988281	-223.9669952392578	-1056.293334960938	597.5587768554688	-236.1609954833984	-1176.844116210938	41.76142883300781	-242.7476654052734	-1106.869018554688	302.6758117675781	-245.4836730957031	-950.369873046875	44.84413528442383	-152.2270660400391	-1029.337646484375	52.17036819458008	-131.4858551025391	-1021.813049316406	46.36451721191406	-245.1813201904297	-1227.4130859375	45.1912956237793	-182.7991027832031	-1114.927734375	472.8387756347656	150.2028045654297	-1082.929565429688	730.4915771484375	177.5870056152344	-1183.103515625	43.04431533813477	176.6791229248047	-1119.975952148438	329.6419067382812	167.8425750732422	-973.1658325195312	48.19868850708008	111.8690795898438	-1036.933349609375	53.64121627807617	82.06835174560547	-1047.066040039062	46.40262603759766	190.9496307373047	-1251.400268554688	35.15087890625	135.8906707763672	
4	0.03	-1228.14794921875	960.476806640625	9.189925193786621	-1216.961303710938	957.6770629882812	-130.2628631591797	-1212.743774414062	1049.10205078125	-47.43632125854492	-950.4528198242188	1256.52197265625	-41.76707077026367	-1235.586669921875	1171.844360351562	-54.57038116455078	-1180.189208984375	1442.343383789062	-39.04604721069336	-990.52490234375	1368.593383789062	-45.40208435058594	-1241.4697265625	1318.764404296875	52.44809722900391	-1207.513671875	1395.210083007812	-139.6302947998047	-1101.657470703125	1421.730590820312	-214.8627471923828	-1104.830078125	1303.582153320312	-314.3384094238281	-1074.689697265625	1089.9423828125	-349.4051818847656	-1151.826538085938	1071.559326171875	-283.4024658203125	-984.6468505859375	893.08740234375	-313.0391235351562	-1031.023681640625	873.5234985351562	-366.7995910644531	-1049.376708984375	1003.952453613281	-361.0560607910156	-962.4114990234375	736.4798583984375	-317.1038208007812	-1019.289001464844	796.006103515625	-365.3301696777344	-963.8265380859375	809.1953735351562	-319.9647216796875	-1118.987548828125	1415.731811523438	123.0772552490234	-1138.407104492188	1355.450561523438	198.9103851318359	-1128.924072265625	1067.75927734375	255.3500518798828	-1174.088500976562	1046.765991210938	209.6495971679688	-1006.360229492188	865.8695068359375	226.1093902587891	-1080.321533203125	855.6446533203125	275.3198852539062	-1121.20556640625	1010.056518554688	265.6935119628906	-1018.808044433594	706.3600463867188	241.156982421875	-1001.520812988281	764.766357421875	238.6170806884766	-1071.027099609375	774.8248291015625	277.9022521972656	-1120.65478515625	1643.891845703125	43.91367721557617	-979.2589721679688	1672.294921875	-104.4218597412109	-988.0481567382812	1678.014892578125	25.68386840820312	-1125.705444335938	1637.957763671875	-133.4747924804688	-1074.580322265625	863.3565063476562	-242.1111297607422	-1123.750854492188	862.1640625	156.3197937011719	-1012.692810058594	901.3831176757812	104.7564468383789	-980.65478515625	898.40625	-154.2489318847656	-1093.316162109375	447.8271484375	-224.02587890625	-1056.1669921875	597.569580078125	-236.2531127929688	-1176.843872070312	41.74825286865234	-242.7541809082031	-1106.737426757812	302.6394348144531	-245.490234375	-950.3545532226562	44.86331939697266	-152.2031707763672	-1029.353881835938	52.16715621948242	-131.4759826660156	-1021.827575683594	46.38740158081055	-245.1796722412109	-1227.421508789062	45.18192672729492	-182.8045196533203	-1114.578979492188	472.759765625	150.1537017822266	-1082.767700195312	730.4290161132812	177.5135803222656	-1183.118286132812	43.03488159179688	176.7161560058594	-1119.755859375	329.5665893554688	167.8604888916016	-973.1856079101562	48.20553588867188	111.8611450195312	-1036.947631835938	53.63059616088867	82.05353546142578	-1047.0693359375	46.41018676757812	190.9367370605469	-1251.400268554688	35.11933898925781	135.9091796875	
